<svg xmlns="http://www.w3.org/2000/svg" width="24" height="24"><path d="M9.863 18.468 2.927 9.863s-3.22-.614-.44-3.629L5.269 3.22l1.317-.176s1.522.293 3.952 1.61l2.429 1.317 2.488-2.547s.497-2.136 3.366.147l2.868 2.283.03 3.629-3.22 4.566-5.444 5.268-1.2.263zM12.76 3.76a6 6 0 0 1 8.48 8.48l-8.53 8.54a1 1 0 0 1-1.42 0l-8.53-8.54a6 6 0 0 1 8.48-8.48l.76.75Zm7.07 7.07a4.002 4.002 0 1 0-5.66-5.66l-1.46 1.47a1 1 0 0 1-1.42 0L9.83 5.17a4.002 4.002 0 1 0-5.66 5.66L12 18.66Z" style="fill:#d80000;stroke:none;stroke-width:1px;stroke-linecap:butt;stroke-linejoin:miter;stroke-opacity:1;fill-opacity:1"/></svg>